PathFileType	4	(x/y/z)	A01_SLOW_T0029.trc
DataRate	CameraRate	NumFrames	NumMarkers	Units	OrigDataRate	OrigDataStartFrame	OrigNumFrames
240	240	7	48	mm	240	313	357
Frame#	Time	TOP_HEAD			R_AC			L_AC			R_ASIS			L_ASIS			R_PSIS			L_PSIS			SACRAL			L_IC			R_IC			L_GT			R_GT			R_LAT_KNEE			R_MED_KNEE			L_MED_KNEE			L_LAT_KNEE			R_TOE			L_TOE			R_1ST_MET			L_1ST_MET			L_5TH_MET			R_5TH_MET			R_LAT_ANK			R_MED_ANK			L_MED_ANK			L_LAT_ANK			L_HEEL_SUP			R_HEEL_SUP			L_HEEL_LAT			R_HEEL_LAT			L_HEEL_MED			R_HEEL_MED			R_LL_PROX_POST			R_LL_PROX_ANT			R_LL_DIST_ANT			R_LL_DIST_POST			R_THIGH_PROX_POST			R_THIGH_PROX_ANT			R_THIGH_DIST_ANT			R_THIGH_DIST_POST			L_PROS_PROX_ANT			L_PROS_PROX_POST			L_PROS_DIST_POST			L_PROS_DIST_ANT			L_THIGH_PROX_ANT			L_THIGH_PROX_POST			L_THIGH_DIST_POST			L_THIGH_DIST_ANT			
		X1	Y1	Z1	X2	Y2	Z2	X3	Y3	Z3	X4	Y4	Z4	X5	Y5	Z5	X6	Y6	Z6	X7	Y7	Z7	X8	Y8	Z8	X9	Y9	Z9	X10	Y10	Z10	X11	Y11	Z11	X12	Y12	Z12	X13	Y13	Z13	X14	Y14	Z14	X15	Y15	Z15	X16	Y16	Z16	X17	Y17	Z17	X18	Y18	Z18	X19	Y19	Z19	X20	Y20	Z20	X21	Y21	Z21	X22	Y22	Z22	X23	Y23	Z23	X24	Y24	Z24	X25	Y25	Z25	X26	Y26	Z26	X27	Y27	Z27	X28	Y28	Z28	X29	Y29	Z29	X30	Y30	Z30	X31	Y31	Z31	X32	Y32	Z32	X33	Y33	Z33	X34	Y34	Z34	X35	Y35	Z35	X36	Y36	Z36	X37	Y37	Z37	X38	Y38	Z38	X39	Y39	Z39	X40	Y40	Z40	X41	Y41	Z41	X42	Y42	Z42	X43	Y43	Z43	X44	Y44	Z44	X45	Y45	Z45	X46	Y46	Z46	X47	Y47	Z47	X48	Y48	Z48	

313	1.3037	712.86	1770.4	346.71	496.99	1568.8	587.48	438.65	1589.8	131.49	474.54	1109.3	559.02	482.99	1055.9	204.8	254.83	1109	429.11	268.12	1098.9	299.54	245.47	1074.2	362.01	441.4	1179.7	163.91	458.35	1209.4	568.37	432.14	971.21	162.61	400.98	998.87	594.15	338.61	595.71	520.88	373.01	592.91	391.31	593.38	591.47	374.01	561.16	598.24	218.06	447.34	66.538	392.11	863.91	155.16	237.73	364.13	55.887	351.7	796.61	107.1	295.48	760.94	96.139	170.57	341.24	43.934	487.54	243.69	131.79	474.52	243.32	146.21	374.02	651.72	158.47	291.52	620.44	145.14	226.49	554.94	71.809	268.91	135.15	119.87	421.22	568.92	46.674	237.16	138.55	92.366	453.52	583.05	46.732	298.83	138.63	94.17	393.21	218.74	435.18	513.55	285.54	414.9	535.05	278.09	341.78	515.61	223.53	352.72	502.58	340.09	863.98	565.14	411.56	873.07	576.04	403.53	782.56	564.09	336.08	775.33	551.68	626.29	529.09	224.3	572.74	515.33	216.07	582.07	452.78	221.59	632.16	472.96	228.5	542.42	851.13	205.29	477.76	834.86	178.03	509.49	766.77	193.41	569.36	782.63	217.05
314	1.3078	717.01	1769.8	346.16	501.06	1568.4	587.3	442.98	1589.6	131.29	478.07	1109.2	558.85	487.33	1055.2	204.7	258.73	1108.7	428.41	272.28	1098.4	298.94	249.44	1073.9	361.37	445.62	1179.3	163.72	461.97	1209.3	568.02	436.47	970.46	162.53	404.19	998.92	593.92	340.36	595.97	520.88	375.06	592.95	391.41	597.07	590.94	374.83	565.05	597.09	218.76	447.37	66.52	392.12	874.97	159.05	239.45	364.25	55.85	351.74	808.29	109.94	297.1	773.14	98.266	172.12	341.37	43.902	487.56	244.05	132.23	474.59	243.82	146.67	374.1	662.64	158.84	292.76	631.73	144.98	227.68	567.35	70.57	269.98	135.55	120.6	421.22	581.81	45.669	238.32	138.85	93.073	453.53	595.81	46.05	300.06	138.91	94.905	393.22	219.94	435.83	513.4	286.62	415.35	535.06	278.96	342.23	515.64	224.48	353.34	502.49	342.8	864.29	564.89	414.27	873.11	575.88	405.98	782.64	564.01	338.51	775.66	551.5	631.3	529	225.22	577.97	514.36	216.89	588.3	451.99	222.44	638.07	472.96	229.46	546.37	850.2	205.49	481.77	833.96	178.08	513.39	765.86	193.68	573.27	781.68	217.47
315	1.312	721.17	1769.2	345.6	505.13	1568	587.1	446.97	1589.4	131.15	481.61	1109.1	558.67	491.67	1054.5	204.6	262.64	1108.5	427.7	276.44	1097.8	298.33	253.41	1073.5	360.72	449.85	1178.9	163.53	465.59	1209.2	567.66	440.81	969.68	162.43	407.42	998.95	593.69	342.13	596.21	520.87	377.14	592.97	391.5	600.77	590.39	375.63	568.94	595.93	219.46	447.39	66.501	392.13	885.78	162.93	241.18	364.37	55.813	351.77	819.74	112.82	298.75	785.09	100.43	173.7	341.5	43.871	487.57	244.4	132.67	474.65	244.31	147.12	374.17	673.39	159.27	294.03	642.82	144.91	228.9	579.56	69.451	271.1	135.95	121.33	421.21	594.47	44.785	239.53	139.15	93.775	453.54	608.36	45.484	301.33	139.19	95.631	393.21	221.15	436.47	513.25	287.72	415.78	535.05	279.85	342.66	515.66	225.44	353.96	502.39	345.53	864.57	564.63	417	873.13	575.73	408.45	782.7	563.93	340.96	775.97	551.31	636.27	528.89	226.12	583.17	513.39	217.71	594.47	451.22	223.29	643.92	472.96	230.43	550.33	849.25	205.68	485.79	833.03	178.12	517.31	764.93	193.92	577.19	780.71	217.87
316	1.3162	725.35	1768.5	345.03	509.21	1567.5	586.89	450.64	1589.1	131.05	485.16	1108.9	558.48	496.02	1053.7	204.5	266.55	1108.2	426.98	280.62	1097.3	297.72	257.39	1073.1	360.07	454.1	1178.5	163.33	469.21	1209	567.29	445.16	968.87	162.34	410.67	998.95	593.45	343.93	596.43	520.84	379.24	592.96	391.58	604.47	589.83	376.42	572.85	594.77	220.16	447.42	66.484	392.14	896.33	166.79	242.91	364.48	55.777	351.8	830.94	115.72	300.42	796.8	102.61	175.3	341.63	43.841	487.59	244.76	133.11	474.7	244.79	147.56	374.24	683.94	159.76	295.32	653.71	144.9	230.14	591.57	68.443	272.25	136.35	122.06	421.2	606.92	44.013	240.77	139.45	94.472	453.55	620.67	45.027	302.64	139.47	96.35	393.21	222.39	437.09	513.08	288.84	416.2	535.04	280.76	343.08	515.67	226.41	354.56	502.29	348.3	864.84	564.36	419.74	873.12	575.57	410.93	782.74	563.84	343.43	776.25	551.11	641.21	528.77	227.02	588.35	512.44	218.53	600.59	450.46	224.15	649.72	472.95	231.4	554.3	848.27	205.85	489.83	832.09	178.15	521.24	763.98	194.16	581.13	779.72	218.25
317	1.3204	729.53	1767.9	344.44	513.29	1567.1	586.67	454	1588.8	130.99	488.73	1108.8	558.29	500.38	1053	204.39	270.48	1107.9	426.26	284.81	1096.7	297.09	261.38	1072.7	359.41	458.36	1178	163.14	472.83	1208.8	566.91	449.53	968.04	162.23	413.93	998.92	593.2	345.77	596.62	520.81	381.37	592.93	391.65	608.19	589.25	377.21	576.78	593.6	220.86	447.45	66.467	392.15	906.62	170.61	244.65	364.59	55.741	351.82	841.89	118.62	302.12	808.24	104.81	176.91	341.75	43.811	487.6	245.11	133.54	474.74	245.27	147.99	374.29	694.29	160.29	296.62	664.4	144.96	231.41	603.36	67.54	273.42	136.75	122.77	421.18	619.13	43.345	242.04	139.75	95.163	453.56	632.75	44.667	303.97	139.75	97.059	393.2	223.66	437.7	512.92	289.98	416.59	535.01	281.68	343.47	515.66	227.41	355.15	502.17	351.08	865.08	564.09	422.51	873.09	575.41	413.44	782.76	563.74	345.92	776.51	550.91	646.12	528.64	227.91	593.5	511.51	219.35	606.66	449.72	225.01	655.46	472.93	232.37	558.29	847.28	206.01	493.89	831.12	178.17	525.19	763	194.37	585.08	778.72	218.61
318	1.3245	733.73	1767.2	343.85	517.37	1566.6	586.44	457.09	1588.3	130.97	492.32	1108.6	558.08	504.76	1052.2	204.28	274.41	1107.5	425.53	289.01	1096.1	296.46	265.37	1072.3	358.76	462.65	1177.6	162.94	476.45	1208.6	566.52	453.9	967.19	162.13	417.2	998.87	592.95	347.63	596.8	520.76	383.53	592.87	391.71	611.92	588.66	378	580.73	592.44	221.56	447.48	66.451	392.15	916.66	174.37	246.39	364.7	55.706	351.84	852.58	121.5	303.84	819.43	107.01	178.54	341.87	43.784	487.61	245.46	133.96	474.77	245.75	148.4	374.33	704.44	160.86	297.94	674.87	145.07	232.68	614.92	66.732	274.62	137.14	123.47	421.16	631.09	42.771	243.33	140.05	95.849	453.56	644.58	44.394	305.32	140.02	97.758	393.2	224.94	438.3	512.75	291.15	416.97	534.97	282.61	343.86	515.64	228.42	355.73	502.05	353.9	865.29	563.81	425.3	873.04	575.25	415.96	782.75	563.64	348.43	776.75	550.71	651	528.49	228.79	598.63	510.58	220.17	612.67	449	225.88	661.15	472.9	233.34	562.32	846.27	206.17	497.97	830.14	178.19	529.18	762.02	194.58	589.05	777.71	218.95
319	1.3287	737.95	1766.4	343.24	521.46	1566	586.2	459.95	1587.8	130.98	495.92	1108.3	557.87	509.14	1051.3	204.16	278.35	1107.2	424.79	293.22	1095.4	295.83	269.38	1071.8	358.09	466.96	1177	162.75	480.07	1208.3	566.13	458.3	966.32	162.01	420.5	998.79	592.7	349.53	596.94	520.71	385.71	592.79	391.75	615.66	588.05	378.78	584.7	591.28	222.26	447.5	66.436	392.16	926.44	178.07	248.13	364.8	55.672	351.85	863.01	124.35	305.57	830.34	109.2	180.18	341.99	43.757	487.62	245.81	134.37	474.79	246.23	148.8	374.35	714.37	161.46	299.26	685.12	145.23	233.97	626.24	66.013	275.83	137.53	124.17	421.13	642.79	42.281	244.62	140.34	96.529	453.56	656.15	44.198	306.67	140.3	98.448	393.18	226.26	438.88	512.57	292.34	417.33	534.92	283.57	344.22	515.6	229.45	356.29	501.92	356.75	865.48	563.53	428.12	872.97	575.1	418.51	782.72	563.54	350.96	776.96	550.5	655.87	528.33	229.67	603.74	509.67	220.99	618.63	448.3	226.74	666.79	472.86	234.32	566.37	845.25	206.32	502.09	829.14	178.2	533.19	761.02	194.78	593.04	776.69	219.27
